# xmcd CD database file
#
# Track frame offsets:
#	150
#	12140
#	23970
#	35775
#	46650
#	58327
#	70982
#	85625
#	105262
#	116522
#	127580
#	138517
#	148730
#	167850
#	181380
#	193647
#	212145
#	229305
#	246785
#	262675
#
# Disc length: 3685 seconds
#
# Revision: 2
# Processed by: cddbd v1.5.2PL0 Copyright (c) Steve Scherf et al.
# Submitted via: CDex 1.51
#
DISCID=130e6314
DTITLE=Carmen McRae - Sings Great American Songwriters
DYEAR=1900
DGENRE=Jazz
TTITLE0=You Took Advantage Of Me
TTITLE1=Yesterdays
TTITLE2=Last Night When We Were Young
TTITLE3=I'm Putting All My Eggs In One Basket
TTITLE4=Blue Moon
TTITLE5=I Was Doing All Right
TTITLE6=My Foolish Heart
TTITLE7=My Funny Valentine
TTITLE8=Nice Work If You Can Get It
TTITLE9=Between The Devil And The Deep Blue Sea
TTITLE10=All The Things You Are
TTITLE11=I Get A Kick Out Of You
TTITLE12=My Man's Gone Now
TTITLE13=Summertime
TTITLE14=He Was Too Good To Me
TTITLE15=How Long Has This Been Going On?
TTITLE16=When I Fall In Love
TTITLE17=My Romance
TTITLE18=I Concentrate On You
TTITLE19=Ev'ry Time We Say Goodbye
EXTD=Decca/GRP\nGRD-631
EXTT0=
EXTT1=
EXTT2=
EXTT3=
EXTT4=
EXTT5=
EXTT6=
EXTT7=
EXTT8=
EXTT9=
EXTT10=
EXTT11=
EXTT12=
EXTT13=
EXTT14=
EXTT15=
EXTT16=
EXTT17=
EXTT18=
EXTT19=
PLAYORDER=
